<?xml version="1.0" encoding="UTF-8"?>
<svg width="24px" height="24px" viewBox="0 0 24 24" version="1.1" xmlns="http://www.w3.org/2000/svg">
    <g stroke="none" stroke-width="1" fill="none" fill-rule="evenodd">
        <path d="M20.5,11.5c-0.16-0.56-0.39-1.12-0.78-1.5c-0.39-0.38-0.94-0.62-1.5-0.78c-0.56-0.16-1.12-0.25-1.67-0.37
        c-0.55-0.12-1.1-0.27-1.62-0.47c-0.52-0.2-1.01-0.46-1.44-0.81c-0.43-0.35-0.78-0.8-0.96-1.3c-0.18-0.5-0.14-1.09,0.2-1.5
        C13.08,4.36,13.78,4.12,14.5,4c-0.56-0.12-1.13-0.16-1.72-0.08c-0.59,0.08-1.21,0.3-1.61,0.74c-0.4,0.44-0.53,1.08-0.22,1.59
        c0.31,0.51,0.91,0.8,1.52,0.96c0.61,0.16,1.21,0.25,1.8,0.37c0.59,0.12,1.18,0.25,1.73,0.45c0.55,0.2,1.07,0.46,1.5,0.81
        c0.43,0.35,0.78,0.8,0.96,1.3c0.18,0.5,0.14,1.09-0.2,1.5C17.91,11.64,17.22,11.88,16.5,12c0.56,0.12,1.13,0.16,1.72,0.08
        c0.59-0.08,1.21-0.3,1.61-0.74c0.4-0.44,0.53-1.08,0.32-1.57C20.52,10.03,20.5,11.5,20.5,11.5z" fill="#60A5FA"/>
        <path d="M4.12,9.5C3.98,9.18,3.9,8.84,3.9,8.5c0-0.34,0.07-0.68,0.2-1C4.23,7.18,4.4,6.88,4.62,6.62
        c0.22-0.26,0.48-0.48,0.78-0.64c0.3-0.16,0.64-0.27,0.98-0.32C6.72,5.61,7.08,5.6,7.43,5.63c0.35,0.03,0.7,0.1,1.03,0.22
        c0.33,0.12,0.65,0.28,0.94,0.48c0.29,0.2,0.55,0.44,0.77,0.7c0.22,0.26,0.4,0.56,0.53,0.88c0.13,0.32,0.2,0.66,0.2,1
        c0,0.34-0.07,0.68-0.2,1c-0.13,0.32-0.31,0.62-0.53,0.88c-0.22,0.26-0.48,0.48-0.78,0.64c-0.3,0.16-0.64,0.27-0.98,0.32
        C8.07,11.79,7.72,11.8,7.37,11.77c-0.35-0.03-0.7-0.1-1.03-0.22c-0.33-0.12-0.65-0.28-0.94-0.48c-0.29-0.2-0.55-0.44-0.77-0.7
        C4.42,10.12,4.25,9.82,4.12,9.5z" fill="#60A5FA"/>
        <path d="M21,16.5c0,0-1.7-5-11.5-5S2,13.5,2,13.5l-0.5,4h20L21,16.5z" fill="#60A5FA"/>
    </g>
</svg> 