<?xml version="1.0" encoding="UTF-8"?>
<svg width="24px" height="24px" viewBox="0 0 24 24" version="1.1" xmlns="http://www.w3.org/2000/svg">
    <g stroke="none" stroke-width="1" fill="none" fill-rule="evenodd">
        <path d="M12,2c1.1,0,2,0.9,2,2c0,0.24-0.04,0.48-0.12,0.7c-0.09,0.22-0.22,0.42-0.38,0.58c-0.16,0.16-0.36,0.29-0.58,0.38
        C12.7,5.74,12.47,5.79,12.24,5.8c-0.23,0.01-0.47-0.03-0.69-0.12c-0.22-0.09-0.42-0.22-0.58-0.38c-0.16-0.16-0.29-0.36-0.38-0.58
        C10.5,4.5,10.45,4.26,10.46,4.02c0.01-0.24,0.06-0.47,0.15-0.69c0.09-0.22,0.22-0.42,0.38-0.58c0.16-0.16,0.36-0.29,0.58-0.38
        C11.8,2.28,11.9,2.24,12,2.2V2z" fill="#A78BFA"/>
        <path d="M16,6c0,0.56-0.11,1.11-0.33,1.63c-0.22,0.52-0.54,0.99-0.95,1.4c-0.41,0.41-0.88,0.73-1.4,0.95C12.8,10.17,12.4,10.24,12,10.26
        c-0.4,0.02-0.8-0.04-1.18-0.17c-0.38-0.13-0.74-0.34-1.05-0.59c-0.31-0.25-0.59-0.55-0.8-0.89c-0.21-0.34-0.37-0.71-0.46-1.1
        c-0.09-0.39-0.12-0.79-0.07-1.19c0.05-0.4,0.16-0.79,0.33-1.15c0.04,0.01,0.08,0.02,0.11,0.03c0.22,0.09,0.42,0.22,0.58,0.38
        c0.16,0.16,0.29,0.36,0.38,0.58c0.09,0.22,0.13,0.46,0.12,0.69c-0.01,0.23-0.06,0.47-0.15,0.68c-0.09,0.22-0.22,0.42-0.38,0.58
        c-0.16,0.16-0.36,0.29-0.58,0.38c0.42,0.7,1.11,1.2,1.89,1.39c0.78,0.19,1.62,0.07,2.32-0.33c0.7-0.4,1.22-1.06,1.44-1.82
        c0.22-0.76,0.13-1.57-0.27-2.27c-0.09,0.22-0.22,0.42-0.38,0.58c-0.16,0.16-0.36,0.29-0.58,0.38c-0.22,0.09-0.46,0.13-0.69,0.12
        c-0.23-0.01-0.46-0.06-0.68-0.15c-0.22-0.09-0.42-0.22-0.58-0.38c-0.16-0.16-0.29-0.36-0.38-0.58c-0.09-0.22-0.13-0.45-0.12-0.69
        C12,4.1,12.05,3.86,12.14,3.64c0.09-0.22,0.22-0.42,0.38-0.58c0.16-0.16,0.36-0.29,0.58-0.38c0.04-0.01,0.08-0.03,0.11-0.04
        c0.56-0.12,1.15-0.12,1.71,0c0.56,0.12,1.09,0.36,1.54,0.69c0.45,0.33,0.83,0.75,1.11,1.22C15.85,4.93,16,5.46,16,6z" fill="#A78BFA"/>
        <path d="M12,10.5c-4.49,0-7,2.51-7,7V22h14v-4.5C19,13.01,16.49,10.5,12,10.5z M7,17.5h2v2H7V17.5z M11,17.5h2v2h-2V17.5z M15,17.5h2v2h-2V17.5z" fill="#A78BFA"/>
    </g>
</svg> 