<?xml version="1.0" encoding="UTF-8"?>
<svg width="24px" height="24px" viewBox="0 0 24 24" version="1.1" xmlns="http://www.w3.org/2000/svg">
    <g stroke="none" stroke-width="1" fill="none" fill-rule="evenodd">
        <path d="M7,18 C5.9,18 5.01,18.9 5.01,20 C5.01,21.1 5.9,22 7,22 C8.1,22 9,21.1 9,20 C9,18.9 8.1,18 7,18 Z M17,18 C15.9,18 15.01,18.9 15.01,20 C15.01,21.1 15.9,22 17,22 C18.1,22 19,21.1 19,20 C19,18.9 18.1,18 17,18 Z M7.17,14.75 L7.2,14.63 L8.1,13 L15.55,13 C16.3,13 16.96,12.59 17.3,11.97 L21.16,5.01 L19.42,4 L15.55,10.97 L8.53,10.97 L4.21,2 L1.03,2 L1.03,4 L3.01,4 L6.41,10.59 L5.26,12.63 C5.1,12.92 5.01,13.24 5.01,13.58 C5.01,14.69 5.9,15.58 7.01,15.58 L19,15.58 L19,13.58 L7.4,13.58 C7.17,13.58 7.17,14.75 7.17,14.75 Z" fill="#000000" fill-rule="nonzero"></path>
    </g>
</svg> 