<?xml version="1.0" encoding="UTF-8"?>
<svg width="24px" height="24px" viewBox="0 0 24 24" version="1.1" xmlns="http://www.w3.org/2000/svg">
    <g stroke="none" stroke-width="1" fill="none" fill-rule="evenodd">
        <path d="M21.41,11.58l-9-9C12.05,2.22,11.55,2,11,2H4C2.9,2,2,2.9,2,4v7c0,0.55,0.22,1.05,0.59,1.42l9,9
        C11.95,21.78,12.45,22,13,22c0.55,0,1.05-0.22,1.41-0.59l7-7C21.78,14.05,22,13.55,22,13C22,12.45,21.78,11.95,21.41,11.58z M5.5,7
        C4.67,7,4,6.33,4,5.5S4.67,4,5.5,4S7,4.67,7,5.5S6.33,7,5.5,7z" fill="#F43F5E"/>
        <text x="12" y="15" font-family="Arial" font-size="8" fill="white" text-anchor="middle">%</text>
    </g>
</svg> 