<?xml version="1.0" encoding="UTF-8"?>
<svg width="24px" height="24px" viewBox="0 0 24 24" version="1.1" xmlns="http://www.w3.org/2000/svg">
    <g stroke="none" stroke-width="1" fill="none" fill-rule="evenodd">
        <path d="M4,5 C4,4.44771525 4.44771525,4 5,4 L19,4 C19.5522847,4 20,4.44771525 20,5 C20,5.55228475 19.5522847,6 19,6 L5,6 C4.44771525,6 4,5.55228475 4,5 Z M6,12 C6,11.4477153 6.44771525,11 7,11 L17,11 C17.5522847,11 18,11.4477153 18,12 C18,12.5522847 17.5522847,13 17,13 L7,13 C6.44771525,13 6,12.5522847 6,12 Z M8,19 C8,18.4477153 8.44771525,18 9,18 L15,18 C15.5522847,18 16,18.4477153 16,19 C16,19.5522847 15.5522847,20 15,20 L9,20 C8.44771525,20 8,19.5522847 8,19 Z" fill="#000000" fill-rule="nonzero"></path>
    </g>
</svg> 