<?xml version="1.0" encoding="UTF-8"?>
<svg width="32px" height="32px" viewBox="0 0 32 32" version="1.1" xmlns="http://www.w3.org/2000/svg" xmlns:xlink="http://www.w3.org/1999/xlink">
    <g stroke="none" stroke-width="1" fill="none" fill-rule="evenodd">
        <path d="M28,8 L26,8 C26.5977,7.38421 27,6.55432 27,5.63652 C27,3.57895 25.4023,2 23.3613,2 C21.5996,2 19.4189,3.02639 18,5.41353 C16.5811,3.02639 14.4004,2 12.6387,2 C10.5977,2 9,3.57895 9,5.63652 C9,6.55432 9.40234,7.38421 10,8 L8,8 C5.80078,8 4,9.82441 4,12.0526 L4,15 L16,15 L16,8 L20,8 L20,15 L32,15 L32,12.0526 C32,9.82441 30.1992,8 28,8 Z" fill="#4480FF"/>
        <path d="M4,16 L4,27.9474 C4,30.1756 5.80078,32 8,32 L16,32 L16,16 L4,16 Z" fill="#4480FF"/>
        <path d="M20,16 L20,32 L28,32 C30.1992,32 32,30.1756 32,27.9474 L32,16 L20,16 Z" fill="#4480FF"/>
    </g>
</svg> 