<?xml version="1.0" standalone="no"?><!DOCTYPE svg PUBLIC "-//W3C//DTD SVG 1.1//EN" "http://www.w3.org/Graphics/SVG/1.1/DTD/svg11.dtd"><svg t="1744628736162" class="icon" viewBox="0 0 1024 1024" version="1.1" xmlns="http://www.w3.org/2000/svg" p-id="30595" xmlns:xlink="http://www.w3.org/1999/xlink" width="200" height="200"><path d="M1013.76 588.8" fill="#7ec050" p-id="30596"></path><path d="M1006.08 391.68L834.56 43.52c-7.68-15.36-23.04-25.6-40.96-25.6H235.52c-17.92 0-33.28 10.24-40.96 25.6L23.04 391.68c-7.68 17.92-5.12 38.4 5.12 53.76l453.12 545.28c7.68 10.24 20.48 15.36 33.28 15.36s25.6-5.12 33.28-15.36l453.12-545.28c12.8-12.8 15.36-35.84 5.12-53.76z m-192 56.32L547.84 768c-7.68 10.24-20.48 15.36-33.28 15.36s-25.6-5.12-33.28-15.36L215.04 448c-17.92-20.48-15.36-51.2 2.56-69.12 17.92-17.92 48.64-17.92 64 2.56l230.4 279.04 230.4-279.04c10.24-12.8 28.16-20.48 43.52-15.36 15.36 2.56 28.16 15.36 33.28 33.28 10.24 17.92 5.12 35.84-5.12 48.64z" fill="#7ec050" p-id="30597"></path></svg>