<?xml version="1.0" standalone="no"?><!DOCTYPE svg PUBLIC "-//W3C//DTD SVG 1.1//EN" "http://www.w3.org/Graphics/SVG/1.1/DTD/svg11.dtd"><svg t="1744628663003" class="icon" viewBox="0 0 1024 1024" version="1.1" xmlns="http://www.w3.org/2000/svg" p-id="27807" xmlns:xlink="http://www.w3.org/1999/xlink" width="200" height="200"><path d="M329.142857 146.285714h548.571429c-12.178286-36.571429-69.485714-109.714286-201.142857-109.714285-79.250286 0-259.657143 21.942857-347.428572 109.714285zM182.857143 182.857143a182.857143 182.857143 0 0 0-182.857143 182.857143v438.857143a182.857143 182.857143 0 0 0 182.857143 182.857142h658.285714a182.857143 182.857143 0 0 0 182.857143-182.857142v-36.571429h-146.285714a182.857143 182.857143 0 0 1 0-365.714286h146.285714v-36.571428a182.857143 182.857143 0 0 0-182.857143-182.857143H182.857143z" fill="#e47470" p-id="27808"></path><path d="M768 585.142857a109.714286 109.714286 0 0 1 109.714286-109.714286h146.285714v219.428572h-146.285714a109.714286 109.714286 0 0 1-109.714286-109.714286z" fill="#e47470" p-id="27809"></path></svg>