<?xml version="1.0" standalone="no"?><!DOCTYPE svg PUBLIC "-//W3C//DTD SVG 1.1//EN" "http://www.w3.org/Graphics/SVG/1.1/DTD/svg11.dtd"><svg t="1744628522685" class="icon" viewBox="0 0 1295 1024" version="1.1" xmlns="http://www.w3.org/2000/svg" p-id="23772" xmlns:xlink="http://www.w3.org/1999/xlink" width="252.9296875" height="200"><path d="M865.224963 889.932101a133.355193 133.355193 0 0 1 133.434383-133.434382 133.513572 133.513572 0 0 1 133.434382 133.434382 133.434382 133.434382 0 0 1-133.434382 133.434383 133.434382 133.434382 0 0 1-133.434383-133.434383z m-646.503441 0a133.355193 133.355193 0 0 1 133.434382-133.434382 133.592762 133.592762 0 0 1 133.434383 133.671951 133.276003 133.276003 0 0 1-133.434383 133.196814 133.434382 133.434382 0 0 1-133.355193-133.434383z m968.32975-15.837909a188.154358 188.154358 0 0 0-188.629495-157.112056 188.391926 188.391926 0 0 0-188.629495 157.112056H538.488903a188.391926 188.391926 0 0 0-188.629495-157.112056 188.391926 188.391926 0 0 0-188.629495 157.112056H53.84889a52.977805 52.977805 0 0 1-53.84889-51.473204V51.631583a52.819426 52.819426 0 0 1 53.690511-51.473204h756.418529a52.819426 52.819426 0 0 1 53.848891 51.473204v154.182043h188.075168c39.594772 0 56.145387 23.123347 80.694146 51.473204l120.209728 204.704973a215.078803 215.078803 0 0 1 41.336942 103.817492v257.44521a49.810223 49.810223 0 0 1-15.837909 36.031242 55.987008 55.987008 0 0 1-37.931791 14.808445z m-283.34019-310.898151h287.616426a92.255819 92.255819 0 0 0-20.98523-42.762355l-113.716186-197.498724s-12.116-12.116-20.74766-12.116h-132.16735z" fill="#919398" p-id="23773"></path></svg>