<?xml version="1.0" standalone="no"?><!DOCTYPE svg PUBLIC "-//W3C//DTD SVG 1.1//EN" "http://www.w3.org/Graphics/SVG/1.1/DTD/svg11.dtd"><svg t="1744628554195" class="icon" viewBox="0 0 1179 1024" version="1.1" xmlns="http://www.w3.org/2000/svg" p-id="24986" xmlns:xlink="http://www.w3.org/1999/xlink" width="230.2734375" height="200"><path d="M1178.685486 131.635928H0.102547L60.74064 29.865292a89.80802 89.80802 0 0 1 75.370378-29.464574h906.565996a89.984807 89.984807 0 0 1 75.370379 29.464574z" fill="#919398" p-id="24987"></path><path d="M0.102547 131.635928V941.204549a78.670411 78.670411 0 0 0 73.779292 82.500805h1031.260071a78.670411 78.670411 0 0 0 73.779292-82.500805V131.635928z m429.65241 685.522766H170.997073a52.152295 52.152295 0 0 1 0-103.59744h258.875743a52.152295 52.152295 0 0 1 0 103.59744z m137.717417-245.675613H170.997073a52.152295 52.152295 0 0 1 0-103.59744h396.652088a52.152295 52.152295 0 0 1 0 103.59744z m483.572579-34.650338l-85.093688 95.700934a25.57525 25.57525 0 0 1-38.952166 0 33.294968 33.294968 0 0 1 0-43.548639l31.821739-35.711064h-168.242714a31.05566 31.05566 0 0 1 0-61.698816h172.839188l-36.300355-40.720041a33.294968 33.294968 0 0 1 0-43.548639 25.280604 25.280604 0 0 1 38.834308 0l85.093688 95.465218a26.341329 26.341329 0 0 1 0.058929 34.061047z" fill="#919398" p-id="24988"></path></svg>