<?xml version="1.0" standalone="no"?><!DOCTYPE svg PUBLIC "-//W3C//DTD SVG 1.1//EN" "http://www.w3.org/Graphics/SVG/1.1/DTD/svg11.dtd"><svg t="1744628813250" class="icon" viewBox="0 0 1024 1024" version="1.1" xmlns="http://www.w3.org/2000/svg" p-id="32879" xmlns:xlink="http://www.w3.org/1999/xlink" width="200" height="200"><path d="M718.592 643.4816c-59.392 0-115.968-10.5984-166.2976-42.5472-61.7984-39.168-61.7984-97.28-0.3584-136.192 91.648-58.2656 248.8832-57.1904 339.8144 2.304 56.0128 36.6592 55.0912 96.768-1.9456 132.352-52.0704 32.512-109.8752 44.4416-171.2128 44.0832zM113.92 661.2992c93.4912 98.1504 210.688 118.784 335.3088 124.1088-3.7888 55.296 6.8096 100.352 50.7392 134.0416l-1.0752 7.936c-26.7776 0-44.544 0.768-71.2704-0.5632-89.7024-4.4544-175.9232-22.0672-251.2896-71.7824-48.6912-32.256-83.1488-73.7792-78.2336-134.3488 1.4848-18.3808 9.4208-36.096 15.8208-59.392z" fill="#5a7eeb" p-id="32880"></path><path d="M517.7856 628.5312c92.7232 99.2768 320.3072 90.2656 401.7664 1.8432 21.2992 25.6 19.1488 60.416-7.0144 89.0368-34.4576 37.7344-81.2544 52.736-130.9184 60.5184-83.456 13.0048-163.2768 5.12-233.9328-43.4688-42.0864-29.0816-52.1728-68.7104-29.9008-107.9296zM517.4272 768.5632c89.9072 99.0208 316.6208 95.2832 402.3808 3.2256 20.992 27.1872 18.4832 61.44-7.2704 89.4464-37.9904 41.2672-89.6 55.7568-143.7184 62.6688-78.9504 10.24-154.624 1.024-220.8256-45.568-42.2912-29.7984-52.736-68.4032-30.5664-109.7728zM799.1808 298.1888c7.8848-44.2368-15.36-91.3408-63.488-123.5968-86.1696-57.9072-184.6272-73.6256-301.1584-76.0832-19.0464 1.8432-51.968 4.3008-84.6336 8.3968C282.4192 115.2512 219.4944 136.0896 163.84 174.08c-84.5824 57.0368-89.344 139.8784-10.24 203.4688a346.3168 346.3168 0 0 0 79.8208 46.08C293.4784 449.6384 358.4 457.6256 423.6288 461.824h13.2096a355.584 355.584 0 0 0 43.52-1.2288c4.096-8.192 21.0944-25.6 28.5184-32.8704 59.1872-48.4864 134.1952-60.9792 210.432-58.3168 0 0 24.7296 0.768 39.8336 2.5088 24.2176-16.128 35.072-52.6848 38.6048-67.584 0-0.7168 0.3584-1.4336 0.512-2.1504 0.4608-2.304 0.9216-3.9936 0.9216-3.9936zM472.3712 592.5888c-7.4752-11.4176-16.128-38.656-16.128-38.656l-30.72-0.7168c-115.712-6.4-222.8736-33.1264-306.5344-118.9376-34.2528 49.6128-27.4432 108.4416 17.5104 154.5216 59.3408 60.5184 137.472 84.8384 219.7504 99.0208 10.8032 1.8432 21.7088 3.0208 32.4608 3.8912a568.32 568.32 0 0 0 67.1744 4.4544 160.8192 160.8192 0 0 1 16.4864-103.5776z" fill="#5a7eeb" p-id="32881"></path></svg>