<?xml version="1.0" encoding="UTF-8"?>
<svg width="24px" height="24px" viewBox="0 0 24 24" version="1.1" xmlns="http://www.w3.org/2000/svg">
    <g stroke="none" stroke-width="1" fill="none" fill-rule="evenodd">
        <path d="M10.5,3 C14.0898509,3 17,5.91014913 17,9.5 C17,10.9337106 16.5358931,12.2590065 15.7495763,13.3338028 L20.7071068,18.2928932 C21.0976311,18.6834175 21.0976311,19.3165825 20.7071068,19.7071068 C20.3165825,20.0976311 19.6834175,20.0976311 19.2928932,19.7071068 L14.3338028,14.7495763 C13.2590065,15.5358931 11.9337106,16 10.5,16 C6.91014913,16 4,13.0898509 4,9.5 C4,5.91014913 6.91014913,3 10.5,3 Z M10.5,5 C8.01471863,5 6,7.01471863 6,9.5 C6,11.9852814 8.01471863,14 10.5,14 C12.9852814,14 15,11.9852814 15,9.5 C15,7.01471863 12.9852814,5 10.5,5 Z" fill="#999999" fill-rule="nonzero"></path>
    </g>
</svg> 