<svg xmlns="http://www.w3.org/2000/svg" width="48" height="48" viewBox="0 0 48 48" fill="none">
  <path d="M35 21V19C35 12.9249 29.8513 8 23.5 8C17.1487 8 12 12.9249 12 19V21" stroke="#4169E1" stroke-width="2" stroke-linecap="round" stroke-linejoin="round"/>
  <path d="M36 21H34C32.8954 21 32 21.8954 32 23V29C32 30.1046 32.8954 31 34 31H36C38.2091 31 40 29.2091 40 27V25C40 22.7909 38.2091 21 36 21Z" stroke="#4169E1" stroke-width="2" stroke-linecap="round" stroke-linejoin="round"/>
  <path d="M12 21H14C15.1046 21 16 21.8954 16 23V29C16 30.1046 15.1046 31 14 31H12C9.79086 31 8 29.2091 8 27V25C8 22.7909 9.79086 21 12 21Z" stroke="#4169E1" stroke-width="2" stroke-linecap="round" stroke-linejoin="round"/>
  <path d="M32 31V34C32 37.3137 28.4183 40 24 40C19.5817 40 16 37.3137 16 34V31" stroke="#4169E1" stroke-width="2" stroke-linecap="round" stroke-linejoin="round"/>
</svg> 