<?xml version="1.0" encoding="UTF-8"?>
<svg width="32px" height="32px" viewBox="0 0 32 32" version="1.1" xmlns="http://www.w3.org/2000/svg" xmlns:xlink="http://www.w3.org/1999/xlink">
    <g stroke="none" stroke-width="1" fill="none" fill-rule="evenodd">
        <path d="M16,2 C23.732,2 30,8.268 30,16 C30,23.732 23.732,30 16,30 C8.268,30 2,23.732 2,16 C2,8.268 8.268,2 16,2 Z M16,7 C15.448,7 15,7.448 15,8 C15,8.552 15.448,9 16,9 C19.866,9 23,12.134 23,16 C23,16.552 23.448,17 24,17 C24.552,17 25,16.552 25,16 C25,11.029 20.971,7 16,7 Z M8,15 C7.448,15 7,15.448 7,16 C7,20.971 11.029,25 16,25 C16.552,25 17,24.552 17,24 C17,23.448 16.552,23 16,23 C12.134,23 9,19.866 9,16 C9,15.448 8.552,15 8,15 Z M18.5,12 L22.5,12 C23.052,12 23.5,11.552 23.5,11 L23.5,7 C23.5,6.448 23.052,6 22.5,6 C21.948,6 21.5,6.448 21.5,7 L21.5,10 L18.5,10 C17.948,10 17.5,10.448 17.5,11 C17.5,11.552 17.948,12 18.5,12 Z M10.5,22 L13.5,22 C14.052,22 14.5,21.552 14.5,21 C14.5,20.448 14.052,20 13.5,20 L10.5,20 L10.5,17 C10.5,16.448 10.052,16 9.5,16 C8.948,16 8.5,16.448 8.5,17 L8.5,21 C8.5,21.552 8.948,22 9.5,22 L10.5,22 Z" fill="#57D289"/>
    </g>
</svg> 