<?xml version="1.0" standalone="no"?><!DOCTYPE svg PUBLIC "-//W3C//DTD SVG 1.1//EN" "http://www.w3.org/Graphics/SVG/1.1/DTD/svg11.dtd"><svg t="1750925484536" class="icon" viewBox="0 0 1026 1024" version="1.1" xmlns="http://www.w3.org/2000/svg" p-id="14933" xmlns:xlink="http://www.w3.org/1999/xlink" width="200.390625" height="200"><path d="M19.222 885.9c-0.1 0-0.2 0.1-0.4 0.1 8.6-2.8 18.5 1 24.2 8.4 3.3 4.2 5 9.1 5 13.8 0-1.5-1.5 8.5-0.7 5.4 0.6-2.3 2.7-3.4-1.8 4.1 0.4-0.7 0.8-1.6 1.2-2.3 2.8-5 6.3-9.5 9.7-14 2.8-3.7-3 3.8-0.9 1.2 0.8-1 1.5-1.9 2.3-2.9 1.7-2.1 3.4-4.3 5.2-6.4 4.9-6 9.9-12 14.6-18.2 13.6-17.6 24.5-37 31.1-58.3 5.6-17.9 7.5-36.8 9.8-55.4 0.6-4.8 1.2-9.6 1.8-14.3 0.6-4.2-0.9 7-0.5 4 0.1-0.7 0.2-1.5 0.3-2.2 0.2-1.7 0.5-3.4 0.7-5.1l3-20.1c2.5-16.1 5.3-32.1 8.4-48.1 7.6-39.7 16.5-79.2 26.9-118.3 12-45.2 26-90 42.4-133.9 4.3-11.4 8.7-22.7 13.3-33.9 1.1-2.6 2.2-5.3 3.3-7.9 2.1-5.1-2.4 5.8-0.3 0.7 0.7-1.7 1.4-3.3 2.1-5 2.4-5.5 4.8-11 7.3-16.5 10-22.1 20.7-43.8 32.5-65 11.5-20.8 23.9-41 37.5-60.5 3.3-4.7 6.6-9.4 10.1-14 1.7-2.3 3.4-4.6 5.2-6.8 2-2.6-2.4 3.1-2.2 2.8 0.5-0.7 1-1.3 1.6-2 0.9-1.1 1.8-2.2 2.6-3.3 7.2-9 14.6-17.8 22.4-26.2 15-16.3 31.2-31.2 48.5-44.9-7.9 6.2-0.1 0.1 1.9-1.3 2.3-1.7 4.5-3.3 6.8-4.9 4.3-3 8.8-6 13.3-8.8 9.2-5.7 18.6-11 28.3-15.7 2.2-1.1 4.5-2.1 6.8-3.2 1.1-0.5 2.2-1 3.2-1.4 5.9-2.6-5.1 2.1-0.6 0.3 4.9-2 9.8-3.9 14.8-5.6 10.3-3.6 20.9-6.5 31.6-8.7 5.3-1.1 10.6-2.1 16-2.9 0.5-0.1 1.1-0.2 1.6-0.2 3.8-0.6-7 0.9-3.1 0.4 1.4-0.2 2.7-0.3 4.1-0.5 2.7-0.3 5.5-0.6 8.3-0.8 11.6-1 23.3-1.2 34.9-0.7 5.9 0.2 11.8 0.7 17.7 1.3 3 0.3 6 0.7 9 1 3.5 0.4-7.5-1.1-1.4-0.2 1.7 0.2 3.3 0.5 5 0.8 13 2.1 25.8 4.9 38.4 8.4 13.3 3.7 26.4 8.1 39.2 13 3.4 1.3 6.7 2.6 10.1 4 0.7 0.3 1.4 0.6 2 0.8 4.1 1.7-5.7-2.5-1.7-0.7 1.7 0.7 3.4 1.5 5.1 2.2 7.3 3.2 14.6 6.7 21.8 10.2 14.6 7.3 28.9 15.1 42.9 23.5 7.9 4.8 15.9 9.6 23.5 14.8 0.3 0.2 7.2 4.9 7.1 5.1-0.7-0.5-1.4-1.1-2.1-1.6 0.9 0.7 1.8 1.4 2.8 2.2 0.9 0.7 1.8 1.5 2.7 2.2 4.7 4 9.2 8.1 13.5 12.5 3 3.1 5.9 6.3 8.7 9.6 1.1 1.3 2.1 2.6 3.2 3.9 0.5 0.7 1.1 1.4 1.6 2.1-2.9-3.7-4.3-5.6-1.9-2.4 12 16 21.8 33.5 30.5 51.5 3 6.2 5.9 12.5 8.6 18.8 0.7 1.7 1.5 3.4 2.2 5.1 1.8 4.2-1.5-3.5-1.2-2.9 0.4 1 0.8 1.9 1.2 2.9 1.6 3.8 3.1 7.6 4.6 11.4 6.9 17.4 13.1 35 18.9 52.7 16.3 49.8 29.6 100.5 41.6 151.4 17.6 74.6 32.2 150 45.4 225.5 8.5 48.4 16.3 96.9 23.8 145.5 0.5 3.3 1 6.5 1.5 9.8 0.2 1.6 0.5 3.3 0.7 4.9 0 0.3 0.1 0.7 0.1 1 0.4 3 0.4 2.6-0.2-1.1-0.6 2.2 0.3 6 0.2 8.3 0 0.9-0.4 2.5-0.2 3.3 0.6-3.7 0.6-4.1 0.2-1.5-0.1 0.8-0.3 1.6-0.5 2.4-0.5 2.4-1.3 4.7-2 7.1-1.5 5.3 2.5-4.5-0.1 0.4l-1.5 3c-1.2 2.3-2.6 4.4-4.1 6.5-0.5 0.7-1 1.4-1.5 2-2.9 4 3.7-4.4 1-1.3-4.4 5-8.8 9.6-13.8 13.9-2.6 2.3 2.7-2.1 2.6-2-0.6 0.7-1.6 1.2-2.4 1.7-1.3 0.9-2.7 1.8-4.1 2.6-2.8 1.7-5.8 2.8-8.6 4.4 6.9-4 2.7-1.1 0.3-0.3-1.6 0.5-3.1 1-4.7 1.4-1.6 0.4-3.3 0.8-4.9 1.1-0.7 0.1-1.3 0.2-2 0.3-4.1 0.7 6.3-0.6 2.3-0.3-3.6 0.3-7.1 0.5-10.7 0.3-1.9-0.1-3.7-0.3-5.6-0.4-3.8-0.3 3 0.4 2.9 0.4-1.5 0-3.2-0.5-4.7-0.8-3.7-0.7-7.3-1.6-10.9-2.7-2.1-0.6-4.2-1.4-6.3-2.1l-3.9-1.5c-4.2-1.6 5 2.3 0.5 0.2-9.7-4.5-19-9.7-27.8-15.7-2.5-1.7-5-3.4-7.4-5.2-1.3-0.9-2.5-1.9-3.8-2.8-3.1-2.3 4.4 3.6-0.5-0.4-5.7-4.6-11.3-9.3-17.8-12.6-3.2-1.6-6.4-3.1-9.6-4.6-5.3-2.6-10.6-5.1-16-7.4-16.3-7-32.3-11.3-50.1-12.5-22.3-1.6-45.2 2-66.9 6.8-34.3 7.5-67.7 19.2-100.4 31.7-11 4.2-21.9 8.5-32.8 13-11.8 4.8-23.5 10.5-35.8 13.9-2.6 0.7-5.2 1.4-7.8 1.9-1.8 0.4-3.5 0.6-5.3 1-1.8 0.3-3.2 1.5 1-0.1-3.8 1.4-9.3 0.7-13.4 1-5.5 0.4-11.1 0.8-16.6 1.2-11.2 0.7-22.5 1.1-33.7 0.2-3-0.2-6-0.7-8.9-0.9 9.2 0.7 2.5 0.3 0.4 0s-4.2-0.7-6.4-1.1c-8.1-1.5-16.1-3.5-24.1-5.6-10-2.8-19.9-5.9-29.7-9.3-12.6-4.3-24.4-9.7-37.9-10.3-16.1-0.7-30.5 5.8-42.8 15.6-0.6 0.5-1.3 1-1.9 1.6 5-4.5 2.9-2.2 1.4-1.1s-3 2.2-4.6 3.2c-3.8 2.6-7.7 4.9-11.8 7-1.9 1-8.7 3.3-1.1 0.7-1.8 0.6-3.5 1.4-5.3 2-4.2 1.5-8.6 2.6-13 3.4-0.8 0.1-5.2 0.9-0.7 0.2s0.1-0.1-0.8 0c-2.2 0.2-4.5 0.3-6.8 0.3s-4.7-0.1-7-0.2c-1-0.1-1.9-0.2-2.9-0.3-5-0.5 5.2 1 0.6 0.1-5.1-1-10.2-2.1-15.2-3.7-2.7-0.9-5.3-1.9-8-2.9-4.1-1.5 0.2 0.2 0.8 0.4-2-0.5-4-1.8-5.8-2.7-2.8-1.4-5.7-2.8-8.4-4.4-2.4-1.4-2.1-2.9 0.3 0.5-0.5-0.7-1.7-1.5-2.4-2.1-3.7-3.4-6.7-7.3-10.5-10.6-11.6-10.2-26.3-15.8-41.1-19.5-17.3-4.3-35.3-6.4-53.1-7.8-27.9-2.6-57-3-85.1 1.5-12.4 2.1-20.4 18.1-16.7 29.5 4.4 13.5 16.2 18.9 29.5 16.8 0.6-0.1 1.3-0.3 1.9-0.3 3.1 0.1-5.1 0.6-4.4 0.6 1.2 0 2.4-0.3 3.6-0.4 3.1-0.3 6.2-0.6 9.3-0.8 6.8-0.4 13.6-0.6 20.4-0.7 16.6-0.2 33.3 0.5 49.9 2.1 3.9 0.4 7.7 0.9 11.5 1.3-8.6-1-1.4-0.2 0.7 0.2 2.3 0.4 4.6 0.7 6.9 1.2 7.3 1.3 14.5 2.9 21.5 5.1 2.9 0.9 5.6 2.1 8.5 3-8.2-2.8-3.1-1.3-1-0.3 1.4 0.7 2.8 1.5 4.2 2.3 2.2 1.4 4.7 4.5-1.3-1.2 0.8 0.8 1.7 1.5 2.5 2.3 4 4 7.7 8.3 12.1 11.9 11.6 9.5 26 15.7 40.1 20.5 11.5 3.9 23.9 6 36.1 6.4 21 0.6 41.9-5.5 60-16 3.4-2 6.7-4.2 9.9-6.5 3-2.2 5.9-4.5 8.8-6.8 0.8-0.6 1.6-1.3 2.4-1.9-4.9 4.1-1.1 1 0.3 0.2 0.5-0.2 0.9-0.5 1.4-0.7 2.3-1.1 1.8-0.9-1.5 0.5 0 0 3.2-1 2.9-1 0.7-0.2 4.1-0.5 4.5-1-0.5 0.6-5.9 0.2-1.8 0.4 1.2 0.1 2.6 0.1 3.9 0 3.3-0.1-6-1.5-1-0.2 3.3 0.9 6.5 1.9 9.7 3.1 19.8 7.3 39.8 14 60.4 18.6 15.1 3.4 30.5 5.7 46 6.1 11.2 0.3 22.3-0.5 33.5-1.3 21.4-1.6 42.1-3.4 62.1-11.8 22.3-9.4 44.7-18.4 67.5-26.7 31.1-11.4 62.9-22 95.6-28.1 2.9-0.5 5.8-1.1 8.7-1.5l4.2-0.6c3.7-0.5-6.4 0.8-3.5 0.5 0.9-0.1 1.8-0.2 2.8-0.3 4.9-0.6 9.8-1 14.7-1.2 4.5-0.2 9.1-0.2 13.6 0 2 0.1 3.9 0.2 5.9 0.4 0.9 0.1 1.9 0.2 2.8 0.3 5 0.5-6-0.9-3.1-0.4 6.8 1.1 13.5 2.6 20.1 4.8 2.9 1 5.8 2.1 8.7 3.3 2.7 1.1-7.4-3.2-3.3-1.4 0.7 0.3 1.4 0.6 2 0.9 1.4 0.6 2.8 1.3 4.2 1.9 5.7 2.7 11.3 5.4 16.9 8.1 2.5 1.3 4.8 2.8 7.3 4.2 3.1 1.8-4.9-4 0.1 0 1.3 1 2.5 2 3.8 3 6.2 4.9 12.5 9.7 19 14.1 9.2 6.2 18.9 11.8 29.1 16.3 18.3 8.1 38.1 13.9 58.4 12.7 17.1-1 34-5.9 48.3-15.6 14.5-9.8 27.8-23.2 36.2-38.6 6.7-12.4 10.5-26.4 10.7-40.5 0.2-14.4-3.5-29.4-5.7-43.6-13.8-89.8-29.1-179.4-47.3-268.5-12.7-62.3-26.9-124.3-44.1-185.5-11.3-40.1-23.8-79.9-39.5-118.5-10.3-25.2-21.4-50.3-35.9-73.5-12.9-20.7-28.4-40-47.4-55.3-28.9-23.4-62.8-41.9-96.5-57.5-27.8-12.9-56.7-24-86.5-31.3-50.1-12.3-102.5-14.2-152.9-2-46 11.2-87.7 34.3-124.4 63.8-37 29.8-67.9 66.8-94.6 105.9-27.5 40.3-50.3 83.8-69.9 128.4-20.4 46.3-37.9 93.9-52.7 142.3-13 42.4-24.1 85.3-33.6 128.5-7.5 34-13.9 68.2-19.2 102.6-1 6.6-1.9 13.2-2.8 19.8-0.7 4.9-1.3 9.8-1.9 14.6-0.6 4.5-1.1 9.1-1.7 13.6-0.3 2.2-0.5 4.3-0.8 6.5-0.5 3.9 0.3-2.4 0.3-2.5-0.3 1.5-0.4 3-0.6 4.4-1.3 8.5-2.9 16.9-5.2 25.2-1.2 4.1-2.5 8.2-4.1 12.3-0.3 0.8-0.8 1.7-1 2.5 1.7-6.4 1.1-2.6 0.3-0.7-1.1 2.4-2.2 4.7-3.4 7-5 9.7-11 19.6-18 28 3.4-4.1 0.5-0.7-0.3 0.3-1 1.3-2.1 2.5-3.1 3.8-2 2.4-4 4.8-5.9 7.2-4.7 5.5-9 11-13.3 16.5-7 9.2-14.5 19-15 31.1-0.5 10.7 7.7 21.8 18.3 24.2 4 0.9 9.7 1.5 13.7-0.1 6-2.5 10.9-5.1 14.3-11 3-5.1 4.3-12.7 2.4-18.5-3.5-11.1-17.1-21.9-29.5-16.8z" fill="#040000" p-id="14934"></path><path d="M418.622 383.6a25.4 25.4 0 1 0 50.8 0 25.4 25.4 0 1 0-50.8 0zM694.422 383.6a25.4 25.4 0 1 0 50.8 0 25.4 25.4 0 1 0-50.8 0zM575.922 471.9l-25.2 40.5c-3.8 6.1-9 12.5-8.9 20 0.1 10.1 8.4 17 17.9 17.9 1.9 0.2 3.8 0.2 5.7 0.3 16.8 1 33.7 2.6 50.6 3 7.1 0.1 13.6-3.3 17-9.7 3.3-6.2 2.2-12.3-0.5-18.3-3.2-7-6.6-14-9.9-21-4.4-9.3-8.7-18.7-13.1-28-1.4-3-2.6-5.8-5-8.2-8.9-8.9-21.8-5.7-28.6 3.5-3.8 5.1-0.8 13 4.2 16 6 3.5 12.2 0.9 16-4.2-1.7 2.3-4.2 3.2-6.8 1.8 0.4 0.2-1.8-1-1.7-1.1 0 0 0.6 1.2 0.6 1.3 0.9 2.3 2.1 4.5 3.2 6.8 3.5 7.5 7 15 10.6 22.5 3.2 6.7 6.3 13.4 9.5 20.2 0.4 0.8 0.7 1.6 1.1 2.4 0.7 1.5-0.2 0.4-0.3-0.6-0.2-1.7 0.2-3.9 1.4-5.1 0.2-0.2 2.9-2 3.1-1.6h-0.3c-0.4-0.3-1.7-0.1-2.1-0.1-15.2-0.9-30.4-1.8-45.7-2.7-2.5-0.1-5-0.3-7.5-0.4-0.3 0-1-0.2-1.3-0.1 4.3-1.7 6.5 7.2 4.8 7.4 0.5-0.1 2-3.2 2.3-3.7l5.4-8.7c7.9-12.8 15.9-25.6 23.8-38.3 7.8-12.8-12.4-24.5-20.3-11.8z" fill="#040000" p-id="14935"></path></svg>