<?xml version="1.0" standalone="no"?><!DOCTYPE svg PUBLIC "-//W3C//DTD SVG 1.1//EN" "http://www.w3.org/Graphics/SVG/1.1/DTD/svg11.dtd"><svg t="1744628854498" class="icon" viewBox="0 0 1024 1024" version="1.1" xmlns="http://www.w3.org/2000/svg" p-id="34847" xmlns:xlink="http://www.w3.org/1999/xlink" width="200" height="200"><path d="M385.024 54.528a48 48 0 0 1 55.552 24.448 80 80 0 0 0 142.72 0A48 48 0 0 1 638.72 54.528a473.984 473.984 0 0 1 196.288 109.76 48 48 0 0 1 10.368 56.384 80 80 0 0 0 71.808 115.328h1.088a48 48 0 0 1 46.528 33.6 476.544 476.544 0 0 1 12.16 237.952 48 48 0 0 1-51.84 38.144 80.192 80.192 0 0 0-87.936 79.616c0 19.712 7.04 37.632 18.816 51.584a48 48 0 0 1-2.112 64.192 474.624 474.624 0 0 1-206.4 125.888 48 48 0 0 1-59.392-31.36 80 80 0 0 0-152.448 0 48 48 0 0 1-59.456 31.36 474.624 474.624 0 0 1-206.4-125.888 48 48 0 0 1-2.112-64.192 80 80 0 0 0-69.12-131.2 48 48 0 0 1-51.712-38.144 476.608 476.608 0 0 1 12.096-237.952 48 48 0 0 1 46.464-33.6h1.088a80 80 0 0 0 71.872-115.328 48 48 0 0 1 10.368-56.32A473.984 473.984 0 0 1 385.024 54.464z m-107.392 160a176.32 176.32 0 0 1-135.104 213.76 380.16 380.16 0 0 0-7.232 123.392 176 176 0 0 1 130.688 248.32c29.76 25.408 63.424 46.272 100.032 61.568A175.744 175.744 0 0 1 512 784c60.8 0 114.24 30.784 145.92 77.568a378.688 378.688 0 0 0 99.968-61.632 176 176 0 0 1 130.688-248.32 384.512 384.512 0 0 0-7.168-123.264 176.064 176.064 0 0 1-135.168-213.888 378.112 378.112 0 0 0-100.864-56.96 175.616 175.616 0 0 1-133.376 61.184c-53.376 0-101.12-23.808-133.376-61.184a378.048 378.048 0 0 0-100.928 56.96z" fill="#ffffff" p-id="34848"></path><path d="M314.752 512a197.312 197.312 0 1 1 394.688 0 197.312 197.312 0 0 1-394.688 0z m197.312-101.312a101.312 101.312 0 1 0 0 202.624 101.312 101.312 0 0 0 0-202.624z" fill="#ffffff" p-id="34849"></path></svg>