<?xml version="1.0" encoding="UTF-8"?>
<svg width="32px" height="32px" viewBox="0 0 32 32" version="1.1" xmlns="http://www.w3.org/2000/svg" xmlns:xlink="http://www.w3.org/1999/xlink">
    <g stroke="none" stroke-width="1" fill="none" fill-rule="evenodd">
        <path d="M29.8667,13.3333 C29.0333,13.3333 28.3333,12.6333 28.3333,11.8 C28.3333,10.9667 29.0333,10.2667 29.8667,10.2667 L29.8667,5.8667 C29.8667,4.3333 28.6667,3.1333 27.1333,3.1333 L4.86667,3.1333 C3.33333,3.1333 2.13333,4.3333 2.13333,5.8667 L2.13333,10.2667 C2.96667,10.2667 3.66667,10.9667 3.66667,11.8 C3.66667,12.6333 2.96667,13.3333 2.13333,13.3333 L2.13333,24.8667 C2.13333,26.4 3.33333,27.6 4.86667,27.6 L27.1333,27.6 C28.6667,27.6 29.8667,26.4 29.8667,24.8667 L29.8667,13.3333 Z M19.3333,15.1333 C19.3333,16.7333 18.0667,18 16.4667,18 L13.7333,18 L13.7333,19.3333 L17.3333,19.3333 C18.0667,19.3333 18.6667,19.9333 18.6667,20.6667 C18.6667,21.4 18.0667,22 17.3333,22 L13.7333,22 L13.7333,22.6667 C13.7333,23.4 13.1333,24 12.4,24 C11.6667,24 11.0667,23.4 11.0667,22.6667 L11.0667,22 L10.6667,22 C9.93333,22 9.33333,21.4 9.33333,20.6667 C9.33333,19.9333 9.93333,19.3333 10.6667,19.3333 L11.0667,19.3333 L11.0667,18 L10.6667,18 C9,18 7.73333,16.7333 7.73333,15.1333 L7.73333,10.6667 C7.73333,9.06667 9,7.8 10.6667,7.8 L16.4667,7.8 C18.1333,7.8 19.4,9.06667 19.4,10.6667 L19.4,15.1333 L19.3333,15.1333 Z" fill="#FF6B6B"/>
        <path d="M13.5333,10.4 L13.5333,15.4 L16.6667,12.9333 L13.5333,10.4 Z M10.5333,10.4667 C11.3333,10.4667 12,11.1333 12,11.9333 C12,12.7333 11.3333,13.4 10.5333,13.4 C9.73333,13.4 9.06667,12.7333 9.06667,11.9333 C9.06667,11.1333 9.73333,10.4667 10.5333,10.4667 Z" fill="#FF6B6B"/>
    </g>
</svg> 